<?xml version="1.0" standalone="no"?>
<!DOCTYPE svg PUBLIC "-//W3C//DTD SVG 20010904//EN"
 "http://www.w3.org/TR/2001/REC-SVG-20010904/DTD/svg10.dtd">
<svg version="1.0" xmlns="http://www.w3.org/2000/svg"
 width="1024.000000pt" height="1024.000000pt" viewBox="0 0 1024.000000 1024.000000"
 preserveAspectRatio="xMidYMid meet">
<metadata>
Created by potrace 1.14, written by Peter Selinger 2001-2017
</metadata>
<g transform="translate(0.000000,1024.000000) scale(0.100000,-0.100000)"
fill="#000000" stroke="none">
<path d="M4390 9346 c0 -9 8 -14 20 -13 11 1 20 2 20 4 0 1 -9 7 -20 13 -16 8
-20 8 -20 -4z"/>
<path d="M4927 9348 c-6 -4 -15 -4 -19 -2 -4 3 -8 1 -8 -5 0 -7 -8 -7 -24 -1
-13 5 -26 6 -29 4 -3 -3 -19 -6 -36 -6 -17 -1 -29 -4 -27 -7 2 -3 -26 -7 -62
-8 -132 -4 -161 -6 -160 -12 2 -18 -3 -22 -16 -12 -17 14 -55 9 -66 -9 -5 -7
-13 -9 -21 -4 -20 12 -48 12 -46 1 1 -6 -15 -10 -35 -10 -21 0 -35 -4 -32 -8
3 -5 -5 -9 -18 -10 -94 -4 -138 -13 -138 -29 0 -4 -9 -6 -20 -3 -11 3 -28 2
-37 -2 -10 -3 -19 -5 -19 -3 -1 2 -11 -5 -21 -14 -15 -14 -22 -15 -31 -6 -9 9
-12 8 -12 -5 0 -12 -7 -16 -22 -14 -12 2 -37 -5 -55 -16 -22 -13 -33 -15 -33
-7 0 10 -3 10 -15 0 -8 -6 -19 -9 -25 -5 -5 3 -10 -1 -10 -9 0 -15 -24 -21
-59 -16 -26 3 -62 -10 -55 -21 4 -8 -1 -9 -16 -4 -19 6 -22 4 -16 -10 5 -13 2
-16 -10 -11 -9 4 -23 1 -30 -5 -8 -6 -14 -8 -14 -4 0 4 -6 3 -12 -3 -14 -11
-18 -12 -48 -12 -11 0 -20 -7 -20 -15 0 -9 -6 -12 -17 -8 -11 4 -14 3 -9 -5 4
-7 2 -12 -3 -12 -6 0 -11 4 -11 10 0 5 -12 -2 -26 -15 -14 -13 -29 -23 -33
-23 -3 1 -16 -3 -28 -10 -12 -6 -29 -9 -39 -5 -13 5 -15 3 -9 -7 6 -10 3 -12
-13 -8 -16 4 -19 2 -15 -10 4 -10 2 -13 -5 -8 -6 3 -13 2 -17 -4 -4 -6 -11 -8
-16 -5 -5 4 -9 1 -9 -5 0 -6 -4 -8 -10 -5 -5 3 -10 1 -10 -4 0 -6 -6 -11 -14
-11 -8 0 -22 -7 -30 -16 -9 -8 -20 -13 -25 -10 -5 4 -11 3 -13 -1 -4 -10 -101
-59 -106 -55 -3 2 -8 0 -11 -6 -5 -8 -115 -76 -177 -110 -13 -7 -24 -18 -24
-23 0 -6 -4 -8 -9 -4 -5 3 -24 -8 -42 -24 -18 -17 -36 -28 -41 -25 -4 3 -8 0
-8 -7 0 -7 -3 -10 -6 -6 -6 5 -23 -6 -72 -50 -14 -13 -28 -23 -31 -23 -3 0
-19 -12 -36 -26 -16 -14 -44 -34 -62 -45 -18 -11 -33 -25 -33 -30 0 -5 -5 -9
-11 -9 -12 0 -58 -37 -118 -93 -19 -18 -37 -32 -40 -32 -11 0 -381 -374 -381
-385 0 -5 -5 -9 -12 -8 -6 2 -18 -9 -25 -24 -8 -16 -18 -28 -24 -28 -5 0 -9
-5 -9 -11 0 -7 -8 -19 -18 -28 -10 -9 -33 -36 -52 -61 -19 -25 -38 -46 -42
-48 -5 -2 -8 -10 -8 -18 0 -8 -7 -14 -16 -14 -8 0 -12 -5 -9 -10 3 -6 -1 -13
-9 -16 -9 -3 -16 -11 -16 -17 0 -22 -65 -107 -79 -102 -11 5 -12 3 -1 -10 9
-11 9 -15 1 -15 -6 0 -15 -10 -20 -23 -17 -45 -73 -118 -86 -113 -9 3 -16 -6
-20 -24 -4 -16 -12 -28 -18 -27 -7 1 -11 -4 -10 -10 2 -7 -2 -13 -7 -13 -6 0
-10 -6 -10 -14 0 -8 -5 -16 -11 -18 -5 -2 -10 -22 -11 -45 0 -27 -6 -44 -15
-47 -8 -3 -11 -10 -8 -16 3 -5 2 -10 -4 -10 -5 0 -15 -16 -22 -35 -7 -19 -17
-35 -21 -35 -4 0 -7 -3 -6 -7 2 -8 -23 -64 -32 -73 -3 -3 -6 -16 -8 -30 -1
-14 -9 -30 -17 -36 -8 -6 -15 -16 -15 -23 0 -6 -6 -11 -14 -11 -9 0 -13 -7
-11 -20 2 -11 0 -22 -5 -25 -5 -3 -8 -18 -8 -34 1 -41 -26 -64 -70 -63 -20 1
-38 6 -40 12 -5 13 -75 13 -88 0 -6 -6 -61 -11 -122 -13 -82 -1 -112 -5 -112
-14 0 -8 -14 -13 -39 -13 -27 0 -41 -5 -45 -16 -4 -9 -9 -14 -13 -11 -6 6 -63
-21 -73 -35 -3 -4 -15 -9 -25 -11 -37 -7 -73 -29 -85 -53 -7 -13 -16 -22 -20
-21 -4 1 -19 -10 -33 -25 -14 -16 -33 -28 -41 -28 -9 0 -13 -7 -11 -19 4 -20
-11 -37 -49 -56 -12 -6 -22 -22 -24 -38 -2 -16 -10 -31 -17 -33 -7 -3 -12 -14
-10 -24 2 -10 -3 -21 -11 -24 -9 -3 -13 -10 -10 -15 3 -5 -4 -11 -15 -14 -12
-3 -18 -10 -14 -16 3 -6 2 -11 -4 -11 -5 0 -9 -12 -9 -27 1 -55 -2 -74 -12
-68 -6 4 -10 -7 -10 -24 0 -17 -4 -31 -8 -31 -5 0 -8 -27 -6 -60 1 -35 -2 -60
-8 -60 -6 0 -7 -8 -3 -17 4 -10 8 -25 9 -33 1 -9 5 -20 8 -25 3 -6 9 -36 12
-67 4 -32 12 -60 17 -64 5 -3 7 -14 4 -25 -4 -10 -2 -19 3 -19 5 0 9 -8 8 -19
0 -10 10 -33 24 -51 14 -18 25 -42 25 -54 0 -14 6 -21 20 -21 14 0 19 -6 17
-21 -1 -11 7 -29 18 -39 11 -10 20 -24 20 -32 0 -7 11 -19 25 -25 14 -6 28
-22 31 -35 4 -13 12 -23 20 -23 9 0 13 -9 12 -25 -1 -14 -8 -25 -15 -25 -7 0
-13 -7 -13 -15 0 -8 -4 -15 -10 -15 -5 0 -10 -7 -10 -15 0 -9 -7 -18 -15 -21
-8 -4 -15 -12 -15 -20 0 -8 -4 -14 -10 -14 -5 0 -10 -11 -10 -25 0 -14 -4 -25
-9 -25 -5 0 -8 -8 -6 -17 1 -10 -1 -23 -6 -29 -5 -6 -7 -25 -5 -42 2 -18 -1
-32 -6 -32 -4 0 -8 -25 -7 -56 2 -39 -2 -60 -12 -68 -10 -8 -14 -34 -14 -101
1 -53 -4 -98 -11 -110 -21 -35 -34 -128 -38 -260 -1 -49 -8 -100 -15 -113 -7
-14 -11 -47 -9 -85 3 -40 -2 -82 -13 -117 -9 -30 -15 -67 -12 -82 2 -15 0 -28
-5 -28 -6 0 -9 -20 -7 -45 1 -25 -1 -48 -5 -50 -10 -6 -12 -315 -2 -315 4 0 7
-24 6 -52 0 -29 5 -62 12 -74 15 -25 38 -104 35 -122 -1 -6 2 -12 7 -12 5 0
10 -12 10 -27 2 -54 7 -78 21 -95 14 -17 18 -34 25 -128 3 -40 0 -48 -26 -72
-17 -15 -34 -25 -38 -23 -5 3 -19 -13 -31 -35 -23 -41 -28 -44 -66 -41 -21 2
-36 -22 -37 -59 -1 -8 -7 -15 -14 -15 -7 0 -21 -13 -30 -30 -9 -16 -21 -33
-25 -36 -4 -3 -7 -12 -5 -20 2 -8 -3 -13 -11 -11 -15 3 -42 -28 -35 -40 3 -5
0 -8 -6 -8 -6 0 -10 -8 -8 -17 2 -10 -5 -27 -14 -38 -10 -11 -25 -28 -33 -37
-8 -10 -15 -34 -15 -53 0 -24 -4 -33 -13 -29 -15 5 -16 -2 -21 -226 -1 -80 1
-148 6 -151 11 -7 19 -54 25 -137 4 -54 7 -62 24 -62 11 0 17 -4 14 -10 -3 -5
1 -10 9 -10 15 0 20 -11 17 -38 -1 -6 4 -12 12 -12 16 0 37 -41 37 -70 0 -11
4 -20 9 -20 5 0 8 -8 7 -18 0 -9 5 -16 12 -14 7 1 15 -5 18 -13 4 -8 12 -15
20 -15 8 0 13 -3 12 -7 -4 -20 16 -42 43 -48 16 -4 29 -13 29 -21 0 -10 8 -14
22 -12 14 2 30 -5 41 -16 10 -11 30 -20 45 -21 20 0 27 -5 27 -20 -1 -11 2
-22 6 -25 4 -3 87 -5 185 -5 l179 0 5 26 c4 20 10 25 33 24 16 -1 31 4 34 11
3 8 20 14 39 14 20 0 37 6 40 14 3 7 16 12 30 10 15 -1 24 3 24 12 0 9 12 14
35 14 21 0 35 5 35 13 0 9 47 13 197 14 109 1 254 3 323 4 69 1 137 -2 151 -5
14 -4 34 -9 45 -11 10 -2 19 -4 19 -5 0 -1 21 -3 47 -5 26 -2 67 -13 91 -24
24 -11 54 -22 68 -24 53 -10 89 -20 89 -26 0 -3 15 -7 33 -8 42 -3 59 -7 73
-15 6 -4 30 -10 52 -14 23 -4 42 -10 42 -13 0 -4 8 -8 18 -9 29 -3 47 -7 57
-14 6 -3 26 -9 45 -13 19 -4 46 -13 60 -20 25 -14 184 -55 220 -58 11 -1 20
-4 20 -8 0 -3 25 -12 55 -19 31 -7 58 -17 61 -22 3 -5 10 -6 15 -3 5 4 9 2 9
-3 0 -5 15 -15 33 -22 17 -7 50 -21 72 -31 43 -20 169 -69 188 -73 15 -4 32
-10 122 -44 38 -15 73 -26 77 -24 5 1 8 -2 8 -7 0 -6 9 -8 20 -6 11 2 22 0 25
-6 4 -5 22 -9 41 -9 21 0 37 -6 40 -14 3 -8 12 -12 19 -9 8 2 20 1 27 -3 7 -5
21 -9 31 -10 9 -1 22 -2 27 -3 6 0 10 -12 10 -24 0 -20 5 -24 28 -22 15 1 34
-4 43 -12 9 -7 40 -14 70 -16 40 -1 54 -6 54 -17 0 -22 15 -30 63 -30 24 0 53
-6 65 -12 12 -7 33 -13 47 -13 14 0 24 -6 22 -13 -1 -9 22 -12 88 -12 71 0 90
-3 90 -14 0 -10 8 -13 24 -10 13 2 29 -2 36 -11 9 -11 33 -15 85 -15 47 0 75
-4 77 -12 3 -7 36 -12 94 -12 56 -1 97 -6 106 -13 8 -8 44 -12 89 -11 41 0 79
-1 84 -2 6 -1 13 -1 18 0 9 2 76 2 80 0 1 -1 25 -4 52 -6 28 -3 57 -8 65 -11
30 -12 423 -9 435 4 7 6 32 12 56 12 75 2 184 14 184 21 0 1 44 3 98 4 59 2
102 7 109 14 7 7 45 12 95 12 71 0 83 2 83 17 0 9 3 13 7 10 3 -4 16 -1 27 7
12 7 51 14 90 15 38 1 76 7 84 14 8 6 23 13 34 13 10 1 25 2 34 3 8 0 12 5 9
11 -4 6 12 10 40 10 27 0 52 6 61 14 8 8 23 13 33 11 11 -2 22 3 25 12 4 10
14 13 27 10 13 -3 26 1 36 12 11 13 26 17 55 15 27 -2 41 2 45 12 3 8 16 14
29 14 14 0 27 7 30 15 4 8 10 12 15 9 6 -3 17 0 26 8 9 7 28 14 42 14 14 1 36
2 49 3 13 1 22 7 22 17 0 8 5 12 11 8 6 -3 15 -1 19 6 5 8 18 15 30 17 12 2
28 10 36 17 8 8 25 13 39 10 18 -3 25 0 25 12 0 10 5 14 15 10 9 -3 23 3 32
14 9 10 21 17 25 14 5 -3 18 2 28 11 10 9 23 15 28 12 4 -3 21 6 37 21 16 14
39 27 52 28 13 0 32 12 44 25 11 13 26 25 32 25 7 1 18 2 25 3 7 0 10 6 7 11
-3 6 3 10 15 10 11 0 31 11 44 25 13 14 33 25 45 25 12 0 24 7 27 15 4 8 10
12 15 9 5 -3 9 2 9 10 0 9 8 16 19 16 10 0 22 7 25 16 3 8 10 12 16 9 6 -4 27
12 48 34 22 24 47 41 60 41 12 0 22 6 22 14 0 8 8 13 18 12 10 0 16 5 14 13
-2 8 3 11 12 8 10 -4 13 -1 9 9 -3 7 0 15 6 15 6 1 16 3 21 4 6 1 14 3 18 4 5
0 14 12 22 25 7 14 18 22 26 19 8 -3 17 2 20 12 4 9 13 14 21 10 11 -3 13 -1
9 10 -5 14 -1 17 34 19 9 1 16 13 18 28 2 17 8 25 16 22 16 -6 46 22 46 42 0
8 5 12 11 9 11 -8 76 55 71 69 -2 5 4 6 11 3 9 -3 14 1 13 11 -1 12 5 16 19
14 11 -2 17 -1 14 3 -4 3 9 22 27 42 19 20 34 40 34 44 0 5 6 9 14 9 8 0 17 7
20 16 3 8 10 12 16 9 5 -3 10 1 10 9 0 9 4 16 8 16 5 0 15 11 22 25 7 14 21
25 30 25 12 0 16 7 15 25 -3 18 1 25 15 25 10 0 20 7 24 15 3 8 11 14 18 13 6
-2 17 11 23 27 13 39 40 77 48 68 4 -3 7 -1 7 5 0 6 14 26 30 44 17 18 42 45
55 60 14 15 25 36 25 48 0 12 4 19 9 16 4 -3 13 6 19 19 7 14 16 25 22 25 5 0
10 7 10 15 0 8 5 15 12 15 6 0 9 3 6 6 -3 3 7 20 23 37 16 18 37 49 47 69 9
21 22 38 28 38 7 0 15 11 18 25 4 14 14 34 24 44 26 27 42 58 42 81 0 11 4 20
8 20 13 0 56 89 55 111 -1 10 3 18 10 16 11 -2 13 4 16 42 0 11 10 23 22 26
11 4 18 9 15 12 -8 8 23 63 35 63 6 0 8 4 5 8 -3 5 1 20 9 35 7 14 11 28 7 31
-3 3 2 6 10 6 11 0 17 14 22 50 4 27 13 56 21 64 9 8 18 30 22 48 3 18 9 38
13 43 4 6 6 18 5 28 -2 10 3 17 12 17 8 0 13 8 12 18 -2 9 3 28 11 42 8 14 15
28 16 33 1 4 3 10 4 15 2 4 4 12 5 17 2 6 4 13 5 18 4 13 6 22 15 62 4 22 15
56 23 75 8 19 16 46 18 60 5 43 27 145 34 155 3 6 6 29 5 53 -1 37 4 45 25 44
3 0 6 43 7 96 1 52 6 98 12 101 5 3 8 18 6 33 -3 23 20 59 32 51 10 -8 33 -2
28 7 -3 5 1 10 9 10 9 0 16 6 16 13 0 9 12 13 33 13 20 -1 31 4 29 12 -1 7 8
12 23 12 17 0 25 6 25 17 0 9 3 13 7 10 3 -4 15 1 26 10 10 10 21 17 23 16 13
-8 34 -1 34 12 0 8 6 12 14 9 7 -3 20 2 29 10 9 9 20 16 26 16 6 0 10 5 9 12
-2 7 4 12 12 13 8 0 20 11 27 25 7 14 21 25 31 25 21 0 45 21 55 48 4 11 16
21 27 24 11 3 20 12 20 20 0 8 5 11 10 8 6 -3 10 1 10 9 0 9 5 16 11 16 5 0 7
5 4 10 -3 6 0 10 8 10 8 0 18 11 21 25 4 14 13 25 21 25 9 0 23 17 33 38 9 20
20 39 25 40 4 2 5 8 1 13 -3 5 0 9 5 9 6 0 11 7 11 16 0 8 5 12 10 9 6 -3 10
1 10 9 0 9 5 16 11 16 5 0 8 4 4 9 -3 5 -1 12 5 16 6 4 8 11 5 16 -4 5 1 9 9
9 14 0 22 26 17 54 -1 5 7 15 18 22 12 9 17 21 14 34 -3 11 -1 20 3 20 5 0 9
17 9 38 1 20 5 46 9 57 5 11 10 25 12 32 1 7 12 26 24 44 20 28 27 53 32 127
1 12 5 22 9 22 10 0 4 294 -7 311 -5 8 -9 19 -11 24 -1 6 -9 37 -17 70 -8 33
-15 62 -16 65 -9 38 -15 58 -26 79 -8 14 -14 33 -14 42 0 9 -20 46 -45 82 -25
37 -45 71 -45 77 0 5 -4 10 -8 10 -15 0 -54 79 -46 92 5 7 9 19 10 28 5 32 10
46 26 70 19 31 31 67 33 100 0 15 6 24 14 22 7 -1 10 2 5 10 -9 15 -9 57 0 79
4 9 5 77 3 150 -6 158 -9 200 -20 216 -4 6 -3 23 3 37 7 20 6 27 -7 34 -10 6
-16 22 -15 41 0 17 -3 31 -8 31 -5 0 -7 6 -4 13 3 8 -2 20 -11 27 -8 7 -15 19
-15 26 0 8 -5 14 -11 14 -5 0 -8 4 -5 9 3 5 0 14 -8 20 -8 7 -17 23 -20 37 -4
14 -11 22 -16 19 -6 -3 -10 3 -10 14 0 12 -4 21 -9 21 -5 0 -25 24 -45 53 -20
29 -46 58 -57 66 -18 10 -19 15 -8 22 11 7 11 9 -2 9 -9 0 -22 7 -29 15 -7 8
-16 12 -21 9 -5 -3 -17 9 -28 26 -11 19 -21 27 -26 21 -9 -16 -28 -2 -21 15 3
8 0 14 -7 13 -28 -3 -48 2 -42 11 3 6 -1 10 -9 10 -9 0 -16 5 -16 11 0 8 -5 8
-15 -1 -12 -10 -15 -10 -15 4 0 9 -8 16 -19 16 -11 0 -23 5 -26 10 -3 6 -21
10 -40 10 -18 0 -40 6 -47 13 -7 7 -34 12 -60 12 -27 0 -48 3 -48 7 0 5 -22 8
-50 7 -27 -1 -47 -6 -44 -11 3 -5 -20 -6 -50 -4 -40 3 -56 1 -56 -7 0 -8 -22
-13 -62 -15 -34 -1 -67 -7 -73 -12 -6 -5 -27 -10 -48 -12 -20 -1 -39 -8 -42
-16 -4 -11 -8 -12 -19 -3 -10 9 -16 9 -21 1 -4 -6 -12 -10 -18 -9 -24 3 -77
-14 -71 -23 3 -5 -5 -6 -20 -2 -21 5 -26 3 -26 -12 0 -9 -3 -14 -7 -11 -3 4
-12 2 -19 -4 -8 -6 -20 -9 -28 -6 -7 3 -18 1 -24 -5 -15 -15 -73 -12 -83 4 -7
10 -9 10 -9 1 0 -7 -5 -13 -11 -13 -5 0 -7 5 -4 10 3 6 1 10 -4 10 -6 0 -11 7
-11 15 0 8 -4 15 -8 15 -5 0 -17 16 -27 35 -11 19 -21 32 -24 30 -4 -5 -35 34
-37 48 -1 4 -3 10 -4 15 -1 4 -2 10 -1 15 0 4 -6 7 -14 7 -9 0 -19 8 -22 18
-4 9 -13 23 -20 30 -7 8 -10 18 -7 24 4 7 2 8 -4 4 -7 -4 -12 -3 -12 3 0 6 -6
8 -14 5 -8 -3 -17 3 -20 14 -4 11 -14 23 -22 26 -8 3 -13 10 -10 15 3 5 -8 14
-24 21 -24 10 -28 15 -19 26 9 11 7 14 -10 14 -11 0 -20 5 -18 12 1 7 -4 13
-10 14 -7 1 -17 2 -23 3 -5 0 -10 10 -10 21 0 11 -7 20 -15 20 -9 0 -12 6 -9
15 4 8 1 15 -6 15 -6 0 -8 5 -5 10 6 9 -14 14 -42 11 -7 -1 -13 3 -13 8 0 16
-99 111 -115 111 -14 0 -20 12 -16 33 1 5 -8 11 -19 14 -11 3 -20 10 -20 17 0
6 -4 4 -9 -3 -8 -12 -11 -9 -17 13 -4 17 -11 25 -20 22 -8 -3 -14 1 -14 9 0
13 -6 17 -26 14 -4 0 -10 3 -13 8 -3 4 -23 19 -43 33 -20 13 -34 28 -32 32 3
4 -4 8 -14 8 -11 0 -23 7 -26 16 -3 8 -10 12 -16 9 -6 -3 -13 1 -16 9 -3 9
-12 16 -19 16 -7 0 -18 7 -25 15 -7 8 -17 12 -23 8 -6 -4 -8 0 -5 8 7 17 -31
47 -54 43 -10 -1 -18 2 -18 6 0 5 -9 12 -20 15 -11 3 -20 13 -20 21 0 8 -9 14
-20 14 -11 0 -20 5 -20 10 0 6 -9 10 -20 10 -13 0 -18 5 -13 15 3 9 2 15 -3
14 -22 -4 -35 2 -28 13 5 8 2 9 -9 5 -9 -3 -19 -2 -22 4 -4 5 -11 7 -16 4 -5
-3 -6 1 -3 9 4 11 0 14 -15 11 -12 -2 -25 3 -30 13 -5 9 -12 16 -15 15 -14 -7
-26 -2 -24 9 2 7 -9 12 -30 11 -27 0 -30 2 -20 14 9 12 9 14 -3 13 -30 -5 -49
0 -47 12 2 7 -4 13 -12 14 -37 3 -41 5 -35 14 4 6 -7 10 -25 10 -17 0 -29 4
-26 9 3 5 -8 11 -25 15 -18 3 -28 10 -24 17 4 5 1 10 -6 8 -30 -4 -60 2 -55
10 6 10 -40 25 -53 17 -4 -3 -13 3 -20 13 -8 11 -21 16 -32 14 -11 -3 -19 0
-19 6 0 6 -13 11 -30 11 -20 0 -30 5 -30 15 0 14 -24 20 -59 16 -7 -2 -10 2
-7 8 4 5 2 12 -4 16 -5 3 -10 1 -10 -4 0 -6 -9 -3 -20 7 -11 9 -37 18 -56 18
-20 1 -39 6 -43 12 -4 6 -21 12 -39 14 -17 1 -34 8 -36 15 -3 6 -14 10 -26 8
-11 -2 -20 0 -20 5 0 5 -7 6 -17 3 -11 -4 -14 -3 -9 5 7 11 -21 16 -87 15 -11
0 -16 6 -13 14 3 7 -1 13 -9 13 -8 0 -15 -5 -15 -12 0 -6 -6 -4 -12 5 -8 10
-34 20 -63 23 -27 4 -55 11 -61 16 -7 5 -31 11 -55 13 -45 5 -82 12 -86 15 -2
2 -7 3 -12 4 -5 0 -13 4 -16 8 -4 4 -16 3 -26 -3 -12 -6 -26 -6 -36 -1 -9 5
-24 7 -34 5 -11 -3 -21 1 -24 10 -5 10 -19 14 -51 13 -25 -1 -48 2 -50 5 -3 6
-39 5 -39 -1 0 -1 -8 -3 -17 -5 -10 -2 -18 2 -18 9 0 12 -71 13 -89 1 -5 -3
-16 4 -24 16 -8 11 -17 17 -20 12 -8 -13 -125 -15 -149 -2 -25 13 -471 20
-491 7z m2658 -728 c3 -5 1 -10 -4 -10 -6 0 -11 5 -11 10 0 6 2 10 4 10 3 0 8
-4 11 -10z"/>
<path d="M1686 8941 c-4 -5 -2 -12 3 -15 5 -4 12 -2 15 3 4 5 2 12 -3 15 -5 4
-12 2 -15 -3z"/>
<path d="M1835 8480 c-3 -5 -1 -10 4 -10 6 0 11 5 11 10 0 6 -2 10 -4 10 -3 0
-8 -4 -11 -10z"/>
<path d="M2410 8380 c0 -5 5 -10 10 -10 6 0 10 5 10 10 0 6 -4 10 -10 10 -5 0
-10 -4 -10 -10z"/>
<path d="M1850 8170 c0 -5 7 -10 16 -10 8 0 12 5 9 10 -3 6 -10 10 -16 10 -5
0 -9 -4 -9 -10z"/>
<path d="M1870 7860 c0 -19 3 -21 12 -12 9 9 9 15 0 24 -9 9 -12 7 -12 -12z"/>
</g>
</svg>
